<svg width="314" height="331" viewBox="0 0 314 331" fill="none" xmlns="http://www.w3.org/2000/svg">
    <path d="M92.3803 -100.042L210.656 18.2342C225.462 33.0399 230.843 54.8311 224.632 74.8272L201.968 147.794C195.756 167.79 201.138 189.581 215.944 204.387L340.34 328.783" stroke="url(#paint0_linear_131_70)" stroke-width="1.37517"/>
    <path d="M1.9448 -9.60986L120.22 108.666C135.026 123.472 156.817 128.853 176.813 122.642L249.78 99.9773C269.776 93.7662 291.567 99.1477 306.373 113.953L430.769 238.35" stroke="url(#paint1_linear_131_70)" stroke-width="1.37517"/>
    <path d="M7.78464 -15.4424L127.64 104.413C141.603 118.376 161.854 124.016 181.025 119.282L245.58 103.341C264.751 98.6066 285.002 104.247 298.965 118.21L424.941 244.186" stroke="url(#paint2_linear_131_70)" stroke-width="1.37517"/>
    <path d="M24.3139 -31.9731L150.865 94.5783C161.015 104.728 174.654 110.624 189.001 111.066L236.628 112.53C250.975 112.971 264.614 118.867 274.764 129.017L407.436 261.689" stroke="url(#paint3_linear_131_70)" stroke-width="1.37517"/>
    <path d="M35.9819 -43.6411L169.782 90.1585C175.419 95.796 182.188 100.174 189.642 103.003L235.986 120.594C243.44 123.423 250.209 127.801 255.846 133.438L395.767 273.358" stroke="url(#paint4_linear_131_70)" stroke-width="1.37517"/>
    <path d="M30.1479 -37.8091L160.006 92.0487C168.14 100.183 178.568 105.635 189.89 107.672L235.738 115.92C247.06 117.957 257.488 123.409 265.623 131.543L401.601 267.522" stroke="url(#paint5_linear_131_70)" stroke-width="1.37517"/>
    <path d="M42.7885 -50.4492L181.902 88.6644C184.058 90.8198 186.384 92.7969 188.859 94.5762L236.768 129.018C239.243 130.797 241.57 132.774 243.726 134.929L388.96 280.164" stroke="url(#paint6_linear_131_70)" stroke-width="1.37517"/>
    <path d="M57.3745 -65.0352L191.174 68.7645C196.812 74.402 201.189 81.171 204.019 88.6247L221.609 134.969C224.438 142.423 228.816 149.192 234.454 154.829L374.374 294.75" stroke="url(#paint7_linear_131_70)" stroke-width="1.37517"/>
    <path d="M50.5678 -58.2285L189.681 80.8851C191.837 83.0405 193.814 85.3672 195.593 87.8423L230.035 135.751C231.814 138.226 233.791 140.553 235.947 142.708L381.181 287.943" stroke="url(#paint8_linear_131_70)" stroke-width="1.37517"/>
    <path d="M13.6167 -21.2759L135.537 100.644C148.365 113.472 166.582 119.344 184.487 116.422L241.141 107.175C259.045 104.253 277.263 110.125 290.091 122.953L418.132 250.994" stroke="url(#paint9_linear_131_70)" stroke-width="1.37517"/>
    <path d="M19.4507 -27.1104L143.692 97.1309C155.2 108.639 171.119 114.613 187.357 113.517L238.269 110.08C254.507 108.984 270.427 114.958 281.935 126.466L412.297 256.828" stroke="url(#paint10_linear_131_70)" stroke-width="1.37517"/>
    <path d="M69.0405 -76.7041L195.592 49.8473C205.742 59.9971 211.638 73.6358 212.079 87.9829L213.543 135.61C213.984 149.957 219.881 163.596 230.031 173.746L362.703 306.418" stroke="url(#paint11_linear_131_70)" stroke-width="1.37517"/>
    <path d="M63.2065 -70.8691L193.064 58.9887C201.199 67.1231 206.65 77.5512 208.687 88.8733L216.936 134.721C218.973 146.043 224.424 156.471 232.559 164.606L368.537 300.584" stroke="url(#paint12_linear_131_70)" stroke-width="1.37517"/>
    <path d="M79.7417 -87.3999L201.662 34.5202C214.49 47.3483 220.362 65.5653 217.439 83.4701L208.193 140.124C205.271 158.029 211.142 176.246 223.97 189.074L352.011 317.115" stroke="url(#paint13_linear_131_70)" stroke-width="1.37517"/>
    <path d="M85.5737 -93.2329L205.573 26.7667C219.458 40.6517 225.119 60.7605 220.517 79.8498L205.111 143.747C200.508 162.836 206.169 182.945 220.054 196.83L346.175 322.951" stroke="url(#paint14_linear_131_70)" stroke-width="1.37517"/>
    <path d="M73.9057 -81.5635L198.147 42.6778C209.655 54.1858 215.629 70.1052 214.533 86.343L211.096 137.255C210 153.493 215.974 169.413 227.482 180.921L357.844 311.283" stroke="url(#paint15_linear_131_70)" stroke-width="1.37517"/>
    <rect width="8.25101" height="8.25101" transform="matrix(-0.707107 -0.707107 -0.707107 0.707107 151.21 50.1963)" fill="#223FFA"/>
    <rect width="11.0014" height="11.0014" transform="matrix(-0.707107 -0.707107 -0.707107 0.707107 138.568 -3.28564)" fill="#8B9AFD"/>
    <rect width="5.50068" height="5.50068" transform="matrix(-0.707107 -0.707107 -0.707107 0.707107 180.38 7.41113)" fill="#1A1A1A"/>
    <rect width="4.12551" height="4.12551" transform="matrix(-0.707107 -0.707107 -0.707107 0.707107 100.644 28.8022)" fill="#1A1A1A"/>
    <rect width="4.12551" height="4.12551" transform="matrix(-0.707107 -0.707107 -0.707107 0.707107 122.035 83.2563)" fill="#8B9AFD"/>
    <rect width="6.87585" height="6.87585" transform="matrix(-0.707107 -0.707107 -0.707107 0.707107 83.1421 65.7534)" fill="#1A1A1A"/>
    <rect width="4.12551" height="4.12551" transform="matrix(-0.707107 -0.707107 -0.707107 0.707107 148.291 21.9956)" fill="#1A1A1A"/>
    <rect x="-0.972391" y="-8.19665e-08" width="4.12551" height="4.12551" transform="matrix(-0.707107 -0.707107 -0.707107 0.707107 180.666 32.0048)" fill="white" stroke="black" stroke-width="1.37517"/>
    <rect x="-0.972391" y="-8.19665e-08" width="4.12551" height="4.12551" transform="matrix(-0.707107 -0.707107 -0.707107 0.707107 108.711 59.2333)" fill="white" stroke="black" stroke-width="1.37517"/>
    <rect x="0.972392" y="8.19665e-08" width="4.12551" height="4.12551" transform="matrix(-0.707107 -0.707107 -0.707107 0.707107 149.952 84.9171)" fill="white" stroke="black" stroke-width="1.37517"/>
    <rect width="4.12551" height="4.12551" transform="matrix(-0.707107 -0.707107 -0.707107 0.707107 66.6108 39.499)" fill="#223FFA"/>
    <rect x="276.648" y="175.634" width="8.25102" height="8.25102" transform="rotate(45 276.648 175.634)" fill="#CCCCCC"/>
    <rect x="298.041" y="226.199" width="4.12551" height="4.12551" transform="rotate(45 298.041 226.199)" fill="#CCCCCC"/>
    <rect x="243.585" y="204.807" width="4.12551" height="4.12551" transform="rotate(45 243.585 204.807)" fill="#CCCCCC"/>
    <rect x="261.091" y="243.702" width="6.87585" height="6.87585" transform="rotate(45 261.091 243.702)" fill="#CCCCCC"/>
    <rect x="304.845" y="178.552" width="4.12551" height="4.12551" transform="rotate(45 304.845 178.552)" fill="#CCCCCC"/>
    <rect x="294.15" y="144.518" width="5.50068" height="5.50068" transform="rotate(45 294.15 144.518)" fill="#CCCCCC"/>
    <rect x="266.921" y="216.476" width="5.50068" height="5.50068" transform="rotate(45 266.921 216.476)" fill="#CCCCCC"/>
    <rect x="242.613" y="178.553" width="2.75034" height="2.75034" transform="rotate(45 242.613 178.553)" fill="#CCCCCC"/>
    <rect x="287.347" y="260.233" width="4.12551" height="4.12551" transform="rotate(45 287.347 260.233)" fill="#CCCCCC"/>
    <defs>
        <linearGradient id="paint0_linear_131_70" x1="47.1641" y1="-54.8253" x2="385.556" y2="283.567" gradientUnits="userSpaceOnUse">
            <stop/>
            <stop offset="1" stop-color="#CCCCCC" stop-opacity="0.4"/>
        </linearGradient>
        <linearGradient id="paint1_linear_131_70" x1="47.161" y1="-54.8261" x2="385.553" y2="283.566" gradientUnits="userSpaceOnUse">
            <stop/>
            <stop offset="1" stop-color="#CCCCCC" stop-opacity="0.4"/>
        </linearGradient>
        <linearGradient id="paint2_linear_131_70" x1="47.1665" y1="-54.8242" x2="385.559" y2="283.568" gradientUnits="userSpaceOnUse">
            <stop/>
            <stop offset="1" stop-color="#CCCCCC" stop-opacity="0.4"/>
        </linearGradient>
        <linearGradient id="paint3_linear_131_70" x1="46.6789" y1="-54.3382" x2="385.071" y2="284.054" gradientUnits="userSpaceOnUse">
            <stop/>
            <stop offset="1" stop-color="#CCCCCC" stop-opacity="0.4"/>
        </linearGradient>
        <linearGradient id="paint4_linear_131_70" x1="46.6782" y1="-54.3374" x2="385.07" y2="284.055" gradientUnits="userSpaceOnUse">
            <stop/>
            <stop offset="1" stop-color="#CCCCCC" stop-opacity="0.4"/>
        </linearGradient>
        <linearGradient id="paint5_linear_131_70" x1="46.6786" y1="-54.3397" x2="385.071" y2="284.052" gradientUnits="userSpaceOnUse">
            <stop/>
            <stop offset="1" stop-color="#CCCCCC" stop-opacity="0.4"/>
        </linearGradient>
        <linearGradient id="paint6_linear_131_70" x1="46.6781" y1="-54.3388" x2="385.07" y2="284.053" gradientUnits="userSpaceOnUse">
            <stop/>
            <stop offset="1" stop-color="#CCCCCC" stop-opacity="0.4"/>
        </linearGradient>
        <linearGradient id="paint7_linear_131_70" x1="46.6782" y1="-54.3389" x2="385.07" y2="284.053" gradientUnits="userSpaceOnUse">
            <stop/>
            <stop offset="1" stop-color="#CCCCCC" stop-opacity="0.4"/>
        </linearGradient>
        <linearGradient id="paint8_linear_131_70" x1="46.6783" y1="-54.339" x2="385.07" y2="284.053" gradientUnits="userSpaceOnUse">
            <stop/>
            <stop offset="1" stop-color="#CCCCCC" stop-opacity="0.4"/>
        </linearGradient>
        <linearGradient id="paint9_linear_131_70" x1="46.678" y1="-54.3372" x2="385.07" y2="284.055" gradientUnits="userSpaceOnUse">
            <stop/>
            <stop offset="1" stop-color="#CCCCCC" stop-opacity="0.4"/>
        </linearGradient>
        <linearGradient id="paint10_linear_131_70" x1="46.6776" y1="-54.3373" x2="385.07" y2="284.055" gradientUnits="userSpaceOnUse">
            <stop/>
            <stop offset="1" stop-color="#CCCCCC" stop-opacity="0.4"/>
        </linearGradient>
        <linearGradient id="paint11_linear_131_70" x1="46.6755" y1="-54.3391" x2="385.068" y2="284.053" gradientUnits="userSpaceOnUse">
            <stop/>
            <stop offset="1" stop-color="#CCCCCC" stop-opacity="0.4"/>
        </linearGradient>
        <linearGradient id="paint12_linear_131_70" x1="46.6759" y1="-54.3385" x2="385.068" y2="284.054" gradientUnits="userSpaceOnUse">
            <stop/>
            <stop offset="1" stop-color="#CCCCCC" stop-opacity="0.4"/>
        </linearGradient>
        <linearGradient id="paint13_linear_131_70" x1="46.6804" y1="-54.3386" x2="385.073" y2="284.054" gradientUnits="userSpaceOnUse">
            <stop/>
            <stop offset="1" stop-color="#CCCCCC" stop-opacity="0.4"/>
        </linearGradient>
        <linearGradient id="paint14_linear_131_70" x1="46.678" y1="-54.3373" x2="385.07" y2="284.055" gradientUnits="userSpaceOnUse">
            <stop/>
            <stop offset="1" stop-color="#CCCCCC" stop-opacity="0.4"/>
        </linearGradient>
        <linearGradient id="paint15_linear_131_70" x1="46.6788" y1="-54.3365" x2="385.071" y2="284.056" gradientUnits="userSpaceOnUse">
            <stop/>
            <stop offset="1" stop-color="#CCCCCC" stop-opacity="0.4"/>
        </linearGradient>
    </defs>
</svg>
