<svg width="128" height="21" viewBox="0 0 128 21" fill="none" xmlns="http://www.w3.org/2000/svg">
    <rect x="8.98047" y="9.02637" width="6.03299" height="6.03299" transform="rotate(-90 8.98047 9.02637)" fill="#8B9AFD"/>
    <rect x="8.98047" y="21" width="6.03299" height="6.03299" transform="rotate(-90 8.98047 21)" fill="#8B9AFD"/>
    <rect x="14.9668" y="15.0132" width="6.03299" height="6.03299" transform="rotate(-90 14.9668 15.0132)" fill="#8B9AFD"/>
    <rect x="2.99316" y="15.0132" width="6.03299" height="6.03299" transform="rotate(-90 2.99316 15.0132)" fill="#8B9AFD"/>
    <rect x="5.9873" y="6.0332" width="6.03299" height="6.03299" transform="rotate(-90 5.9873 6.0332)" fill="black"/>
    <rect x="5.9873" y="18.0068" width="6.03299" height="6.03299" transform="rotate(-90 5.9873 18.0068)" fill="black"/>
    <rect x="11.9736" y="12.02" width="6.03299" height="6.03299" transform="rotate(-90 11.9736 12.02)" fill="black"/>
    <rect y="12.02" width="6.03299" height="6.03299" transform="rotate(-90 0 12.02)" fill="black"/>
    <path d="M34.1214 13.3659H32.4575V3.38259H34.1214V13.3659ZM32.4575 15.0298H29.1297V13.3659H32.4575V15.0298ZM29.1297 13.3659H27.4658V10.0381H29.1297V13.3659ZM43.657 8.37425H41.9932V5.04648H43.657V8.37425ZM41.9932 3.38259V5.04648H37.0015V8.37425H41.9932V10.0381H37.0015V15.0298H35.3376V3.38259H41.9932ZM46.5404 13.3659H53.196V15.0298H44.8766V3.38259H53.196V5.04648H46.5404V8.37425H51.5321V10.0381H46.5404V13.3659ZM56.0794 13.3659H54.4155V5.04648H56.0794V13.3659ZM61.071 13.3659V10.0381H57.7433V8.37425H62.7349V15.0298H56.0794V13.3659H61.071ZM61.071 5.04648H56.0794V3.38259H61.071V5.04648ZM71.8197 5.04648H68.492V3.38259H76.8114V5.04648H73.4836V15.0298H71.8197V5.04648ZM83.0225 10.0381H81.3587V8.37425H83.0225V10.0381ZM84.6864 8.37425H83.0225V6.71036H84.6864V8.37425ZM79.6948 11.702V15.0298H78.0309V6.71036H79.6948V10.0381H81.3587V11.702H79.6948ZM87.5666 13.3659H85.9027V8.37425H87.5666V13.3659ZM92.5582 10.0381H90.8943V8.37425H92.5582V6.71036H94.2221V15.0298H92.5582V13.3659H90.8943V11.702H92.5582V10.0381ZM90.8943 15.0298H87.5666V13.3659H90.8943V15.0298ZM90.8943 8.37425H87.5666V6.71036H90.8943V8.37425ZM97.1055 13.3659H95.4416V8.37425H97.1055V13.3659ZM102.097 10.0381H100.433V8.37425H102.097V3.38259H103.761V15.0298H102.097V13.3659H100.433V11.702H102.097V10.0381ZM100.433 15.0298H97.1055V13.3659H100.433V15.0298ZM100.433 8.37425H97.1055V6.71036H100.433V8.37425ZM106.644 15.0298H104.981V6.71036H106.644V15.0298ZM106.644 5.04648H104.981V3.38259H106.644V5.04648ZM109.529 10.0381V15.0298H107.866V6.71036H109.529V8.37425H111.193V10.0381H109.529ZM116.185 15.0298H114.521V8.37425H116.185V15.0298ZM114.521 8.37425H111.193V6.71036H114.521V8.37425ZM119.068 13.3659H117.405V8.37425H119.068V13.3659ZM124.06 13.3659H122.396V11.702H124.06V10.0381H122.396V8.37425H124.06V6.71036H125.724V16.6937H124.06V13.3659ZM122.396 8.37425H119.068V6.71036H122.396V8.37425ZM122.396 15.0298H119.068V13.3659H122.396V15.0298ZM124.06 18.3576H119.068V16.6937H124.06V18.3576Z" fill="black"/>
</svg>